<svg xmlns="http://www.w3.org/2000/svg" display="none">

	<symbol id="logo" viewbox="0 0 140 24">
		<circle cx="8.5" cy="11.5" r="8" stroke="#333333" fill="none"/>
		<path d="M25.84 17.58C26.5867 17.58 27.2 17.46 27.68 17.22C28.1733 16.9667 28.42 16.5467 28.42 15.96C28.42 15.68 28.3733 15.44 28.28 15.24C28.2 15.04 28.06 14.86 27.86 14.7C27.66 14.54 27.3933 14.3867 27.06 14.24C26.74 14.0933 26.34 13.92 25.86 13.72C25.4733 13.56 25.1067 13.4 24.76 13.24C24.4133 13.0667 24.1067 12.8733 23.84 12.66C23.5733 12.4333 23.36 12.1667 23.2 11.86C23.04 11.5533 22.96 11.18 22.96 10.74C22.96 9.9 23.2733 9.22 23.9 8.7C24.54 8.18 25.4133 7.92 26.52 7.92C27.2267 7.92 27.8067 7.98 28.26 8.1C28.7267 8.22 29.0533 8.32667 29.24 8.42L28.94 9.58C28.78 9.5 28.5067 9.39333 28.12 9.26C27.7467 9.12667 27.1933 9.06 26.46 9.06C26.1667 9.06 25.8867 9.09333 25.62 9.16C25.3667 9.21333 25.14 9.30667 24.94 9.44C24.74 9.56 24.58 9.72 24.46 9.92C24.34 10.1067 24.28 10.34 24.28 10.62C24.28 10.9 24.3333 11.14 24.44 11.34C24.5467 11.54 24.7 11.72 24.9 11.88C25.1133 12.0267 25.3667 12.1667 25.66 12.3C25.9667 12.4333 26.3133 12.58 26.7 12.74C27.1 12.9 27.48 13.0667 27.84 13.24C28.2133 13.4 28.54 13.6 28.82 13.84C29.1 14.0667 29.3267 14.3467 29.5 14.68C29.6733 15 29.76 15.4067 29.76 15.9C29.76 16.8333 29.4067 17.54 28.7 18.02C28.0067 18.5 27.0533 18.74 25.84 18.74C24.9333 18.74 24.24 18.66 23.76 18.5C23.28 18.3533 22.96 18.24 22.8 18.16L23.14 16.98C23.18 17.0067 23.2667 17.0533 23.4 17.12C23.5333 17.1733 23.7133 17.24 23.94 17.32C24.1667 17.3867 24.4333 17.4467 24.74 17.5C25.06 17.5533 25.4267 17.58 25.84 17.58ZM33.5747 18.5H32.2747V8.16H33.5747V18.5ZM33.8747 5.04C33.8747 5.34667 33.7814 5.59333 33.5947 5.78C33.408 5.95333 33.1814 6.04 32.9147 6.04C32.648 6.04 32.4214 5.95333 32.2347 5.78C32.048 5.59333 31.9547 5.34667 31.9547 5.04C31.9547 4.73333 32.048 4.49333 32.2347 4.32C32.4214 4.13333 32.648 4.04 32.9147 4.04C33.1814 4.04 33.408 4.13333 33.5947 4.32C33.7814 4.49333 33.8747 4.73333 33.8747 5.04ZM37.0208 8.52C37.4074 8.41333 37.9074 8.29333 38.5208 8.16C39.1474 8.02667 39.9541 7.96 40.9408 7.96C42.2474 7.96 43.1941 8.34 43.7808 9.1C43.8474 9.04667 43.9741 8.96 44.1608 8.84C44.3608 8.70667 44.6074 8.57333 44.9008 8.44C45.1941 8.30667 45.5341 8.19333 45.9208 8.1C46.3208 8.00667 46.7608 7.96 47.2408 7.96C48.0274 7.96 48.6608 8.08 49.1408 8.32C49.6341 8.54667 50.0141 8.87333 50.2808 9.3C50.5474 9.71333 50.7274 10.2133 50.8208 10.8C50.9141 11.3867 50.9608 12.0267 50.9608 12.72V18.5H49.6608V13.14C49.6608 12.46 49.6274 11.8733 49.5608 11.38C49.5074 10.8733 49.3874 10.46 49.2008 10.14C49.0274 9.80667 48.7741 9.56 48.4408 9.4C48.1074 9.22667 47.6741 9.14 47.1408 9.14C46.7408 9.14 46.3741 9.18 46.0408 9.26C45.7208 9.32667 45.4408 9.41333 45.2008 9.52C44.9608 9.62667 44.7608 9.73333 44.6008 9.84C44.4541 9.94667 44.3474 10.0267 44.2808 10.08C44.4008 10.4267 44.4874 10.82 44.5408 11.26C44.6074 11.6867 44.6408 12.14 44.6408 12.62V18.5H43.3408V13.14C43.3408 12.46 43.3074 11.8733 43.2408 11.38C43.1874 10.8733 43.0674 10.46 42.8808 10.14C42.6941 9.80667 42.4274 9.56 42.0808 9.4C41.7474 9.22667 41.3008 9.14 40.7408 9.14C40.1141 9.14 39.5808 9.17333 39.1408 9.24C38.7141 9.30667 38.4408 9.36667 38.3208 9.42V18.5H37.0208V8.52ZM55.5864 16.64C55.7064 16.7333 55.8531 16.8333 56.0264 16.94C56.2131 17.0467 56.4264 17.1467 56.6664 17.24C56.9064 17.3333 57.1664 17.4133 57.4464 17.48C57.7264 17.5333 58.0197 17.56 58.3264 17.56C58.9664 17.56 59.4997 17.4533 59.9264 17.24C60.3664 17.0133 60.7197 16.7133 60.9864 16.34C61.2531 15.9533 61.4464 15.5067 61.5664 15C61.6864 14.48 61.7464 13.9333 61.7464 13.36C61.7464 12 61.4064 10.96 60.7264 10.24C60.0464 9.50667 59.1464 9.14 58.0264 9.14C57.3864 9.14 56.8664 9.17333 56.4664 9.24C56.0797 9.29333 55.7864 9.35333 55.5864 9.42V16.64ZM55.5864 22.2H54.2864V8.52C54.6731 8.38667 55.1664 8.26 55.7664 8.14C56.3664 8.02 57.1264 7.96 58.0464 7.96C58.8064 7.96 59.4931 8.08667 60.1064 8.34C60.7331 8.58 61.2664 8.93333 61.7064 9.4C62.1597 9.86667 62.5064 10.4333 62.7464 11.1C62.9997 11.7667 63.1264 12.52 63.1264 13.36C63.1264 14.1467 63.0197 14.8733 62.8064 15.54C62.6064 16.1933 62.3064 16.76 61.9064 17.24C61.5064 17.7067 61.0131 18.0733 60.4264 18.34C59.8531 18.6067 59.1931 18.74 58.4464 18.74C57.7664 18.74 57.1731 18.6467 56.6664 18.46C56.1731 18.26 55.8131 18.0733 55.5864 17.9V22.2ZM68.5666 18.68C68.1266 18.6667 67.7399 18.6067 67.4066 18.5C67.0866 18.4067 66.8132 18.26 66.5866 18.06C66.3732 17.8467 66.2066 17.58 66.0866 17.26C65.9799 16.9267 65.9266 16.5133 65.9266 16.02V3.22L67.2266 2.98V15.98C67.2266 16.3 67.2532 16.56 67.3066 16.76C67.3732 16.9467 67.4666 17.1 67.5866 17.22C67.7066 17.3267 67.8599 17.4067 68.0466 17.46C68.2466 17.5133 68.4799 17.56 68.7466 17.6L68.5666 18.68ZM70.4242 13.32C70.4242 12.4133 70.5509 11.6267 70.8042 10.96C71.0709 10.28 71.4109 9.71333 71.8242 9.26C72.2509 8.80667 72.7309 8.47333 73.2642 8.26C73.8109 8.03333 74.3709 7.92 74.9442 7.92C76.2109 7.92 77.2176 8.33333 77.9642 9.16C78.7242 9.98667 79.1042 11.26 79.1042 12.98C79.1042 13.0867 79.0976 13.1933 79.0842 13.3C79.0842 13.4067 79.0776 13.5067 79.0642 13.6H71.8042C71.8442 14.8667 72.1576 15.84 72.7442 16.52C73.3309 17.2 74.2642 17.54 75.5442 17.54C76.2509 17.54 76.8109 17.4733 77.2242 17.34C77.6376 17.2067 77.9376 17.0933 78.1242 17L78.3642 18.12C78.1776 18.2267 77.8242 18.3533 77.3042 18.5C76.7976 18.6467 76.1976 18.72 75.5042 18.72C74.5976 18.72 73.8242 18.5867 73.1842 18.32C72.5442 18.0533 72.0176 17.68 71.6042 17.2C71.1909 16.72 70.8909 16.1533 70.7042 15.5C70.5176 14.8333 70.4242 14.1067 70.4242 13.32ZM77.7642 12.5C77.7376 11.42 77.4842 10.58 77.0042 9.98C76.5242 9.38 75.8442 9.08 74.9642 9.08C74.4976 9.08 74.0776 9.17333 73.7042 9.36C73.3442 9.54667 73.0242 9.8 72.7442 10.12C72.4776 10.4267 72.2642 10.7867 72.1042 11.2C71.9576 11.6133 71.8709 12.0467 71.8442 12.5H77.7642Z" />
		<rect x="86.5" y="3.5" width="31" height="16" rx="8" stroke="#333333" fill="none" />
		<circle cx="131.5" cy="11.5" r="8" stroke="#333333" fill="none" />
	</symbol>

	<symbol id="burger" viewbox="0 0 24 24" >
		<path fill-rule="evenodd" clip-rule="evenodd" d="M3 20C3 19.7348 3.0862 19.4804 3.23964 19.2929C3.39308 19.1054 3.60119 19 3.81818 19H20.1818C20.3988 19 20.6069 19.1054 20.7604 19.2929C20.9138 19.4804 21 19.7348 21 20C21 20.2652 20.9138 20.5196 20.7604 20.7071C20.6069 20.8946 20.3988 21 20.1818 21H3.81818C3.60119 21 3.39308 20.8946 3.23964 20.7071C3.0862 20.5196 3 20.2652 3 20ZM3 12C3 11.7348 3.0862 11.4804 3.23964 11.2929C3.39308 11.1054 3.60119 11 3.81818 11H20.1818C20.3988 11 20.6069 11.1054 20.7604 11.2929C20.9138 11.4804 21 11.7348 21 12C21 12.2652 20.9138 12.5196 20.7604 12.7071C20.6069 12.8946 20.3988 13 20.1818 13H3.81818C3.60119 13 3.39308 12.8946 3.23964 12.7071C3.0862 12.5196 3 12.2652 3 12ZM3 4C3 3.73478 3.0862 3.48043 3.23964 3.29289C3.39308 3.10536 3.60119 3 3.81818 3H20.1818C20.3988 3 20.6069 3.10536 20.7604 3.29289C20.9138 3.48043 21 3.73478 21 4C21 4.26522 20.9138 4.51957 20.7604 4.70711C20.6069 4.89464 20.3988 5 20.1818 5H3.81818C3.60119 5 3.39308 4.89464 3.23964 4.70711C3.0862 4.51957 3 4.26522 3 4Z" fill="#4C5866"/>
	</symbol>

	<symbol id="search" viewBox="0 0 24 24" fill="none">
		<path d="M13 19C8.58172 19 5 15.4183 5 11C5 6.58172 8.58172 3 13 3C17.4183 3 21 6.58172 21 11C21 15.4183 17.4183 19 13 19Z" stroke="#4C5866" stroke-width="2" stroke-linecap="round" stroke-linejoin="round"/>
		<path d="M2.99998 20.9999L7.34998 16.6499" stroke="#4C5866" stroke-width="2" stroke-linecap="round" stroke-linejoin="round"/>
	</symbol>

	<symbol id="login" viewBox="0 0 24 24" fill="none">
		<path d="M15 3H19C19.5304 3 20.0391 3.21071 20.4142 3.58579C20.7893 3.96086 21 4.46957 21 5V19C21 19.5304 20.7893 20.0391 20.4142 20.4142C20.0391 20.7893 19.5304 21 19 21H15" stroke="#4C5866" stroke-width="2" stroke-linecap="round" stroke-linejoin="round"/>
		<path d="M10 17L15 12L10 7" stroke="#4C5866" stroke-width="2" stroke-linecap="round" stroke-linejoin="round"/>
		<path d="M15 12H3" stroke="#4C5866" stroke-width="2" stroke-linecap="round" stroke-linejoin="round"/>
	</symbol>

	<symbol id="close" viewBox="0 0 24 24" fill="none">
		<path fill-rule="evenodd" clip-rule="evenodd" d="M3.75 3.75C3.94891 3.55109 4.2187 3.43934 4.5 3.43934C4.7813 3.43934 5.05109 3.55109 5.25 3.75L20.25 18.75C20.4489 18.9489 20.5606 19.2187 20.5606 19.5C20.5606 19.7813 20.4489 20.0511 20.25 20.25C20.0511 20.4489 19.7813 20.5606 19.5 20.5606C19.2187 20.5606 18.9489 20.4489 18.75 20.25L3.75 5.25C3.55109 5.05109 3.43934 4.7813 3.43934 4.5C3.43934 4.21869 3.55109 3.94891 3.75 3.75Z" fill="#4C5866"/>
		<path fill-rule="evenodd" clip-rule="evenodd" d="M20.25 3.75C20.4489 3.94891 20.5607 4.2187 20.5607 4.5C20.5607 4.7813 20.4489 5.05109 20.25 5.25L5.25001 20.25C5.0511 20.4489 4.78132 20.5606 4.50001 20.5606C4.21871 20.5606 3.94893 20.4489 3.75002 20.25C3.5511 20.0511 3.43936 19.7813 3.43936 19.5C3.43936 19.2187 3.5511 18.9489 3.75002 18.75L18.75 3.75C18.9489 3.55109 19.2187 3.43934 19.5 3.43934C19.7813 3.43934 20.0511 3.55109 20.25 3.75Z" fill="#4C5866"/>
	</symbol>





	<symbol id="firm1" viewBox="0 0 255 135" fill="none">
		<rect x="0.5" y="0.5" width="254" height="134" stroke="#C4C4C4"/>
		<g clip-path="url(#clip0_1_576)">
		<path d="M91.5745 82.9001V63.5335H89.1161V71.8668H80.6919V63.5335H78.2335V82.9001H80.6919V74.1335H89.1488V82.9001H91.5745ZM106.194 73.0335C106.194 70.0001 104.883 68.4335 100.884 68.4335C99.3758 68.4335 97.6057 68.6668 96.3274 69.0668L96.5568 71.0335C97.6713 70.8001 99.4086 70.5668 100.72 70.5668C102.981 70.5668 103.735 71.2001 103.735 72.9668V75.1668H100.064C97.2452 75.1668 95.8029 76.2335 95.8029 79.1668C95.8029 81.6668 96.9174 83.2335 99.5069 83.2335C101.179 83.2335 102.785 82.7668 104.03 81.9001L104.194 82.9668H106.227L106.194 73.0335ZM103.768 79.9668C102.686 80.6668 101.375 81.1335 100.162 81.1335C98.458 81.1335 98.1958 80.5335 98.1958 79.1001C98.1958 77.6668 98.753 77.2001 100.228 77.2001H103.768V79.9668ZM121.206 82.9001V72.0335C121.206 69.8668 120.42 68.4335 118.191 68.4335C116.585 68.4335 114.356 69.1335 112.815 69.9335V62.6335L110.422 62.9668V82.9335H112.815V72.2668C114.323 71.5001 116.453 70.8001 117.47 70.8001C118.355 70.8001 118.814 71.1668 118.814 72.1001V82.9335H121.206V82.9001ZM136.449 82.9001V72.0335C136.449 69.8668 135.662 68.4335 133.433 68.4335C131.794 68.4335 129.368 69.1668 127.828 69.9668L127.598 68.7668H125.632V82.9335H128.024V72.2335C129.532 71.4668 131.663 70.8001 132.679 70.8001C133.564 70.8001 134.023 71.1668 134.023 72.1001V82.9335H136.449V82.9001ZM142.578 77.9668V76.8001H150.871V73.8335C150.871 70.9001 149.757 68.4668 145.627 68.4668C141.496 68.4668 140.185 70.8335 140.185 73.7668V78.0001C140.185 81.2001 141.595 83.2001 145.692 83.2001C147.429 83.2001 149.298 82.9001 150.609 82.4001L150.314 80.4335C148.773 80.8335 147.298 81.1001 145.922 81.1001C143.201 81.1001 142.578 80.2001 142.578 77.9668ZM142.578 73.5668C142.578 71.5668 143.365 70.5001 145.627 70.5001C147.888 70.5001 148.544 71.6335 148.544 73.5668V74.7335H142.578V73.5668ZM173.882 82.9001V72.0335C173.882 69.8668 173.095 68.4335 170.866 68.4335C169.129 68.4335 166.769 69.1335 165.097 69.9668C164.704 69.0001 163.884 68.4335 162.442 68.4335C160.803 68.4335 158.377 69.1668 156.837 69.9668L156.607 68.7668H154.641V82.9335H157.034V72.2335C158.541 71.4668 160.672 70.8001 161.688 70.8001C162.573 70.8001 163.032 71.1668 163.032 72.1001V82.9335H165.425V72.2335C166.933 71.4668 168.932 70.8001 170.079 70.8001C170.964 70.8001 171.423 71.1668 171.423 72.1001V82.9335H173.882V82.9001ZM178.176 68.7668V79.6335C178.176 81.8001 178.962 83.2335 181.191 83.2335C182.83 83.2335 185.256 82.5001 186.797 81.7001L187.026 82.9001H188.993V68.7335H186.6V79.4335C185.092 80.2001 182.961 80.8668 181.945 80.8668C181.06 80.8668 180.601 80.5001 180.601 79.5668V68.7335L178.176 68.7668ZM180.11 66.6001H182.339V64.1668H180.11V66.6001ZM185.059 66.6001H187.288V64.1668H185.059V66.6001ZM204.366 82.9001V72.0335C204.366 69.8668 203.579 68.4335 201.35 68.4335C199.744 68.4335 197.515 69.1335 195.975 69.9335V62.6335L193.582 62.9668V82.9335H195.975V72.2668C197.482 71.5001 199.613 70.8001 200.629 70.8001C201.514 70.8001 201.973 71.1668 201.973 72.1001V82.9335H204.366V82.9001ZM211.217 82.9001V62.6001L208.824 62.9335V82.9001H211.217ZM217.445 77.9668V76.8001H225.738V73.8335C225.738 70.9001 224.623 68.4668 220.493 68.4668C216.363 68.4668 215.052 70.8335 215.052 73.7668V78.0001C215.052 81.2001 216.461 83.2001 220.559 83.2001C222.296 83.2001 224.164 82.9001 225.475 82.4001L225.18 80.4335C223.64 80.8335 222.165 81.1001 220.788 81.1001C218.067 81.1001 217.445 80.2001 217.445 77.9668ZM217.445 73.5668C217.445 71.5668 218.231 70.5001 220.493 70.5001C222.755 70.5001 223.41 71.6335 223.41 73.5668V74.7335H217.445V73.5668Z" fill="#6F7072"/>
		<path d="M67.5478 56.0331C67.3183 53.4331 66.2038 51.1331 64.3682 49.6331C62.7293 48.2664 60.6314 47.5997 58.5992 47.8664C56.108 48.1331 54.0757 50.0664 52.7973 51.6331C51.3551 53.3664 50.3717 55.2664 49.8473 56.6331C48.5689 55.4997 47.7494 54.1664 47.3561 52.5331C47.0283 51.1331 46.6677 48.3664 46.4055 46.3664C46.2088 45.0331 46.1105 43.9664 46.0121 43.5997C45.7499 42.3664 44.9304 40.2664 44.406 39.1664C45.5532 38.9331 46.4383 38.6331 47.2905 37.7997C48.1428 36.9331 49.5195 35.5997 49.5522 35.5997L50.3717 34.7997L49.2245 34.6997C48.995 34.6664 43.1604 34.2331 42.177 34.2664C41.4887 34.2997 40.6364 34.6664 39.9481 35.3331C39.3908 35.8331 38.6697 36.6997 38.1453 38.0997C37.6208 38.1997 32.8679 39.1331 32.8679 39.1331V40.1664L33.2612 40.2664C34.7363 40.5997 36.6047 41.3997 37.7191 42.2331L37.6536 42.2664C36.703 42.8997 35.4246 43.7664 34.3429 44.7664C32.9662 46.0331 32.3106 47.1664 32.409 48.1664C32.4745 48.8664 32.7696 49.3997 33.2612 49.7664C33.6546 50.0331 34.1463 50.1664 34.7035 50.1664C34.0479 51.3331 33.6874 52.2331 33.4251 53.0997C33.0973 54.2997 32.9662 55.4997 33.1301 56.9997C33.3268 59.2997 34.474 61.5997 35.7852 63.5997H29V79.5664C29 80.9997 29.295 82.3664 29.9178 83.5664C30.475 84.6997 31.2617 85.6664 32.2451 86.4997C34.0151 87.9664 36.3752 88.8331 38.5714 88.8331C40.7676 88.8331 43.1276 87.9664 44.8977 86.4997C45.881 85.6997 46.6677 84.6997 47.225 83.5664C47.7822 82.4664 48.0772 81.2664 48.1428 79.9997C48.2739 77.8664 48.995 74.6997 50.1095 72.2331C51.3551 69.4331 53.0268 67.9664 55.1574 67.7664C56.3047 67.6664 57.4519 67.8331 58.4353 68.2997C59.2547 68.6664 60.0414 69.2331 60.6642 69.9331C61.8115 71.1664 62.3687 72.5664 62.4343 72.8664V72.8331L62.8276 74.1331L63.3849 72.9997C64.2699 71.1331 65.5155 68.1997 66.4333 64.7664C67.4494 61.4997 67.7772 58.5331 67.5478 56.0331ZM36.5719 64.5664L36.8013 64.8664C37.5225 65.8331 38.2764 66.6664 38.8992 67.3331L40.3087 68.8664C42.5704 71.2664 44.3404 73.1664 45.1599 74.5664C46.2088 76.3664 46.9627 78.1331 47.225 79.4664C47.2577 79.5997 47.2905 79.8664 47.2905 79.9664C47.1594 82.8331 45.6844 84.6331 44.406 85.6997C42.7998 87.0331 40.6692 87.8331 38.7025 87.8331C36.703 87.8331 34.6052 87.0664 32.999 85.6997C31.6879 84.5997 30.1145 82.6331 30.1145 79.5664V64.6331L36.5719 64.5664ZM38.2764 43.0664L38.5058 42.8997C38.6697 43.1331 38.7681 43.3331 38.7681 43.5664C38.8336 44.3664 38.1125 45.2331 37.2275 46.3664C36.6374 47.0997 35.9819 47.9664 35.3263 48.9664C34.7035 49.1331 34.179 49.0664 33.8185 48.7997C33.589 48.5997 33.4251 48.3331 33.3923 47.9664C33.3268 47.2997 33.884 46.4331 34.9985 45.3997C36.0802 44.5331 37.3586 43.6997 38.2764 43.0664ZM65.6138 64.5331C64.8927 67.2664 63.9421 69.7331 63.0898 71.4997C62.7621 70.8331 62.2704 70.0664 61.582 69.3331C60.402 67.9997 58.3042 66.4997 55.1574 66.7664C53.8135 66.8997 52.6007 67.4664 51.5517 68.3997C50.6995 69.1997 49.9456 70.3664 49.29 71.7997C48.5361 73.5331 48.0116 75.4997 47.6183 77.3331C47.225 76.2997 46.7005 75.1997 46.0121 74.0331C45.1271 72.5331 43.3243 70.5997 41.0298 68.1664L39.6203 66.6331C38.1125 64.9997 36.8341 63.3331 35.9163 61.7331C34.9002 59.9664 34.3102 58.2997 34.179 56.8664C34.0479 55.4997 34.1463 54.4331 34.4413 53.3331C34.7035 52.3331 35.1952 51.2997 36.0802 49.7997C36.703 48.6997 37.3913 47.8331 38.0469 47.0664C39.0958 45.7664 39.8825 44.7331 39.7842 43.5331C39.6859 42.5331 38.8664 41.5997 37.2602 40.7331C36.5719 40.3664 35.7852 40.0331 35.0641 39.7664C36.6047 39.4664 38.6042 39.0664 38.6042 39.0664L38.8992 38.9997L38.9975 38.7331C39.7186 36.3664 41.3248 35.2997 42.2098 35.2664C42.8326 35.2331 45.8155 35.4664 47.9789 35.5997C47.52 36.0331 46.9627 36.5997 46.5366 37.0331C45.8483 37.7331 45.0616 37.9331 43.9143 38.1997L42.7998 38.4664L43.226 39.0997C43.4554 39.4331 44.6354 42.2331 44.996 43.7997C45.0943 44.1331 45.2255 45.2331 45.3566 46.4664C45.6188 48.5997 45.9794 51.2997 46.3399 52.7664C46.8316 54.8664 47.8805 56.4997 49.6834 57.8664L50.2734 58.2997L50.3717 57.9331C50.8634 56.2997 52.2073 53.8997 53.5185 52.2997C54.6657 50.8664 56.5341 49.1331 58.6647 48.8664C60.402 48.6331 62.2376 49.2331 63.6799 50.4331C65.286 51.7664 66.3022 53.7997 66.4988 56.1331C66.7611 58.4997 66.4333 61.3331 65.6138 64.5331ZM42.2754 39.8997C42.2098 39.0997 41.4887 38.4664 40.6692 38.5664C39.8825 38.6331 39.2597 39.3664 39.3581 40.1997C39.4236 40.9997 40.1448 41.6331 40.9642 41.5331C41.7509 41.4331 42.3409 40.6997 42.2754 39.8997ZM41.2592 39.9997C41.292 40.2331 41.0953 40.4664 40.8659 40.4997C40.6364 40.5331 40.407 40.3331 40.3742 40.0997C40.3414 39.8664 40.5381 39.6331 40.7676 39.5997C41.0298 39.5331 41.2265 39.6997 41.2592 39.9997ZM37.4241 81.4331V81.6664C37.4241 81.9997 37.3913 82.1664 36.7686 82.1664C36.4735 82.1664 36.0802 82.1331 35.7524 82.0331L35.6541 82.7331C35.9491 82.8331 36.3424 82.8997 36.8013 82.8997C37.9814 82.8997 38.2436 82.4664 38.2436 81.7331V81.3331C38.2436 80.7331 38.0141 80.3331 37.2275 80.2997C36.998 80.2997 36.8669 80.2664 36.6374 80.2664V79.1664H38.178V78.4664H35.7852V80.9331C36.113 80.9331 36.3752 80.9331 36.8341 80.9664C37.3586 80.9997 37.4241 81.0997 37.4241 81.4331ZM32.5401 82.7997H35.0968V82.0997H34.2118V78.4664H33.4907L32.409 78.7997L32.6057 79.4997L33.4251 79.2664V82.0997H32.5729V82.7997H32.5401ZM38.8992 81.4664V81.7331C38.8992 82.4997 39.2597 82.8664 40.3087 82.8664C41.3576 82.8664 41.7181 82.5664 41.7181 81.7331V81.4664C41.7181 81.0997 41.587 80.8331 41.0953 80.5997C41.5215 80.3664 41.6198 80.0997 41.6198 79.7664V79.4664C41.6198 78.7997 41.292 78.3997 40.3414 78.3997C39.3908 78.3997 39.0631 78.7997 39.0631 79.4664V79.7664C39.0631 80.0997 39.1942 80.3664 39.5875 80.5997C39.0303 80.8331 38.8992 81.0997 38.8992 81.4664ZM40.8331 79.7664C40.8331 79.9997 40.7676 80.0997 40.3087 80.2997C39.8498 80.0997 39.7842 80.0331 39.7842 79.7664V79.4997C39.7842 79.2331 39.8825 79.0997 40.3087 79.0997C40.7348 79.0997 40.8331 79.2664 40.8331 79.4997V79.7664ZM39.6859 81.5331C39.6859 81.2664 39.7514 81.1331 40.3087 80.8997C40.8659 81.1331 40.9314 81.2331 40.9314 81.5331V81.7331C40.9314 82.0664 40.7676 82.1664 40.3087 82.1664C39.8498 82.1664 39.6859 82.0331 39.6859 81.7331V81.5331ZM43.6849 78.4664L42.1443 81.0664V81.7997H44.0126V82.7664H44.7993V81.7997H45.3238V81.0997H44.7993V78.4331H43.6849V78.4664ZM42.9637 81.1331L44.0126 79.2331V81.1331H42.9637Z" fill="#E1001A"/>
		</g>
		<defs>
		<clipPath id="clip0_1_576">
		<rect width="197" height="55" fill="white" transform="translate(29 34)"/>
		</clipPath>
		</defs>
	</symbol>

	<symbol id="firm2" viewBox="0 0 255 135" fill="none">
		<rect x="0.5" y="0.5" width="254" height="134" stroke="#C4C4C4"/>
		<path fill-rule="evenodd" clip-rule="evenodd" d="M70.2376 48C73.3151 49.9045 77.0851 55.0318 78.3931 58.8408C79.9318 63.0892 78.47 67.2643 74.8539 70.3408C68.9296 75.3217 65.1596 78.7643 62.3898 81.914C60.2355 84.4045 57.5427 87.5541 57.7735 94C52.0801 87.4809 51.0029 77.4459 57.158 70.9268C63.7747 63.8949 65.0057 62.4299 67.4678 59.3535C69.7759 56.4236 70.6223 52.2484 70.2376 48Z" fill="#558EC0"/>
		<path fill-rule="evenodd" clip-rule="evenodd" d="M44.5011 80C28.5114 66.474 32.8793 47.6879 56.279 42.3526C58.7749 41.7514 59.8669 41.526 61.1149 41C62.4409 43.6301 62.5969 45.659 59.3209 47.8382C51.131 53.1734 38.7292 60.4624 44.5011 80Z" fill="#558EC0"/>
		<path fill-rule="evenodd" clip-rule="evenodd" d="M102.918 83.3352C101.609 83.8523 100.955 84 98.9909 84C91.2182 84 85 78.1648 85 71C85 63.8352 91.3 58 98.9909 58C100.3 58 101.609 58.1477 103 58.5909V65.017C101.773 64.3523 100.545 64.0568 98.9909 64.0568C94.7364 64.0568 91.3 67.1591 91.3 71C91.3 74.8409 94.7364 77.9432 98.9909 77.9432C100.791 77.9432 101.691 77.6477 102.836 77.0568L102.918 83.3352Z" fill="#053D5B"/>
		<path fill-rule="evenodd" clip-rule="evenodd" d="M191 71C191 78.1648 184.921 84 177.5 84C170 84 164 78.1648 164 71C164 63.8352 170.079 58 177.5 58C184.921 58 191 63.8352 191 71ZM177.421 64.0568C173.316 64.0568 170 67.1591 170 71C170 74.8409 173.316 77.9432 177.421 77.9432C181.526 77.9432 184.842 74.8409 184.842 71C184.842 67.1591 181.526 64.0568 177.421 64.0568Z" fill="#053D5B"/>
		<path fill-rule="evenodd" clip-rule="evenodd" d="M133.891 83.9251H127V68.0403C127 62.7205 131.676 58 137.5 58C143.324 58 148 62.7205 148 68.0403V84H141.109V68.0403C141.109 65.7176 139.469 64.294 137.418 64.294C135.367 64.294 133.727 65.9424 133.727 68.0403L133.891 83.9251Z" fill="#053D5B"/>
		<path fill-rule="evenodd" clip-rule="evenodd" d="M199.562 83.9251H193V68.0403C193 62.7205 197.453 58 203 58C208.547 58 213 62.7205 213 68.0403V84H206.438V68.0403C206.438 65.7925 204.875 64.294 202.922 64.294C200.969 64.294 199.406 65.9424 199.406 68.0403L199.562 83.9251Z" fill="#053D5B"/>
		<path fill-rule="evenodd" clip-rule="evenodd" d="M111.563 77.1816V83.9251H105V68.0403C105 62.7205 109.453 58 115 58C120.547 58 125 62.7205 125 68.0403V84H118.438V77.1066H111.563V77.1816ZM118.516 71.2622V68.1153C118.516 65.8674 116.953 64.3689 115 64.3689C113.203 64.3689 111.484 66.0173 111.484 68.1153V71.3372H118.516V71.2622Z" fill="#053D5B"/>
		<path fill-rule="evenodd" clip-rule="evenodd" d="M159.195 67.5748L161.256 71.2062C164.823 77.2587 161.177 85.732 150 83.6894V77.7126C154.598 79.377 157.134 77.0317 155.152 73.3246C155.152 73.3246 153.726 70.828 152.616 68.9366C149.921 64.3972 153.329 56.6804 163 58.1935V64.3216C160.543 62.5815 157.293 64.3216 159.195 67.5748Z" fill="#053D5B"/>
		<path d="M221 61.5C221 62.2353 220.647 62.8235 220.118 63.2647C219.588 63.7059 218.794 64 218 64C217.118 64 216.412 63.7059 215.882 63.2647C215.353 62.8235 215 62.1618 215 61.5C215 60.7647 215.353 60.1765 215.882 59.7353C216.412 59.2941 217.206 59 218 59C218.794 59 219.588 59.2941 220.118 59.7353C220.647 60.1765 221 60.7647 221 61.5ZM219.853 63.1176C220.382 62.6765 220.647 62.1618 220.647 61.5C220.647 60.9118 220.382 60.3235 219.853 59.8824C219.324 59.4412 218.706 59.2206 217.912 59.2206C217.118 59.2206 216.5 59.4412 215.971 59.8824C215.441 60.3235 215.176 60.8382 215.176 61.5C215.176 62.1618 215.441 62.6765 215.971 63.1176C216.5 63.5588 217.118 63.7794 217.912 63.7794C218.706 63.7794 219.324 63.4853 219.853 63.1176Z" fill="#053D5B"/>
		<path fill-rule="evenodd" clip-rule="evenodd" d="M217.471 60.3947H218.118C218.353 60.3947 218.529 60.4737 218.529 60.8684C218.529 61.1842 218.412 61.3421 218.118 61.3421H217.471V60.3947ZM217.059 63H217.471V61.7368H218.059C218.412 61.7368 218.529 61.9737 218.529 62.5263C218.529 62.6842 218.529 62.8421 218.588 63H219C218.941 62.8421 218.882 62.5263 218.882 62.2105C218.882 61.7368 218.706 61.5789 218.529 61.5789C218.588 61.5789 218.882 61.4211 218.882 60.7895C218.882 60.2368 218.647 60 218.118 60H217V63H217.059Z" fill="#053D5B"/>
	</symbol>

	<symbol id="firm3" viewBox="0 0 255 135" fill="none">
		<rect x="0.5" y="0.5" width="254" height="134" stroke="#C4C4C4"/>
		<g clip-path="url(#clip0_1_587)">
		<path d="M28.5516 77.1447L26.0432 77.8058L20.5774 69.5614L17.5075 69.4836L17.6572 77.4558L15.1863 77.6502V57.5058L19.9784 57.3502C22.1497 57.2725 23.8344 57.778 24.995 58.7891C26.1556 59.8391 26.7546 61.2391 26.7546 62.9114C26.7546 64.0391 26.3802 65.128 25.6689 66.2169C24.9576 67.3447 23.9467 68.2003 22.599 68.7447V68.8225L28.5516 77.1447ZM17.6198 58.9447L17.47 68.1225L21.2138 67.9669C22.5615 67.578 24.1714 65.9447 24.1714 63.5336C24.1714 60.8502 22.4867 59.1003 19.6789 59.0225L17.6198 58.9447ZM40.1947 77.8058C34.8036 77.8058 30.5732 73.6447 30.5732 67.4225C30.5732 61.7058 35.3652 57.0391 40.7562 57.0391C46.1847 57.0391 50.4151 61.2391 50.4151 67.4614C50.3777 73.2169 45.3611 77.8058 40.1947 77.8058ZM40.569 76.1336C44.7995 76.1336 47.7571 72.8669 47.7571 67.6558C47.7571 62.4447 44.3128 58.7114 40.3818 58.7114C36.1888 58.7114 33.1938 61.9391 33.1938 67.228C33.1938 72.3225 36.713 76.1336 40.569 76.1336ZM61.01 77.4558L58.5391 77.6502V68.0836L51.2388 57.7002L53.8968 57.3502L60.0366 66.6447L66.3635 57.3502L68.4975 57.7002L60.9725 68.2002L61.01 77.4558ZM85.2695 77.4169L82.6863 77.6891L80.777 72.3614L71.4551 72.5558L69.5457 77.6502L67.4118 77.4169L75.7604 57.3502L76.8835 57.078L85.2695 77.4169ZM76.0224 60.8114L72.1664 70.7669L80.178 70.9225L76.0224 60.8114ZM93.8428 77.4558L88.7138 77.6114V57.5447L91.1847 57.3502L91.0724 65.8669L91.1472 75.9002L99.3835 75.5891L99.1963 77.4947L93.8428 77.4558ZM150.785 77.4558L148.314 77.6502V59.0225L140.827 59.2947L141.014 57.3502H149.325L158.048 57.1558L157.861 59.2169L150.823 58.9447L150.673 66.3336L150.785 77.4558ZM174.633 77.4169L172.05 77.6891L170.141 72.3614L160.819 72.5558L158.909 77.6502L156.775 77.4169L165.124 57.3502L166.247 57.078L174.633 77.4169ZM165.386 60.8114L161.53 70.7669L169.542 70.9225L165.386 60.8114ZM183.206 77.4558L178.077 77.6114V57.5447L180.548 57.3502L180.436 65.828L180.511 75.8614L188.747 75.5503L188.56 77.4558H183.206ZM195.523 77.4558L192.266 77.6114V57.5058L196.908 57.3502H202.674L202.487 59.2947L194.737 58.9836L194.55 66.6058L201.289 66.4114L200.877 68.3169L194.512 68.1225L194.7 75.8614L203.31 75.5891L203.123 77.4947H195.523V77.4558ZM209.413 77.4558L207.204 77.6502L207.391 57.5447L209.188 57.3502L221.131 72.9058L220.906 57.5447L223.115 57.3502L222.853 77.4558L222.029 77.6114L209.151 61.3558L209.413 77.4558ZM232.849 77.6502C231.725 77.6502 230.602 77.4169 229.517 76.9502C228.431 76.4836 227.607 75.9002 227.008 75.3169L228.206 73.9558C229.704 75.1225 231.314 76.0169 233.485 76.0169C235.881 76.0169 237.528 74.8891 237.528 72.6725C237.528 71.5058 237.116 70.6114 236.368 70.0669C235.619 69.5225 234.571 68.978 233.298 68.4336C230.64 67.3447 227.795 66.2169 227.795 62.5225C227.795 59.5669 230.378 57.1947 233.897 57.1947C235.731 57.1947 237.641 57.7391 238.764 58.5947L238.314 60.3447C237.191 59.8003 235.02 58.9836 233.373 58.9836C231.538 58.9836 230.003 59.878 230.003 61.8225C230.003 63.0669 230.415 63.9614 231.164 64.5058C231.913 65.0891 232.961 65.6336 234.196 66.178C236.817 67.3447 239.737 68.278 239.737 71.8947C239.775 75.7058 236.443 77.6502 232.849 77.6502Z" fill="#333333"/>
		<path d="M110.279 57.0777V77.5721H130.008V57.0777H110.279ZM120.125 76.7166C115.108 76.7166 111.065 72.5166 111.065 67.3054C111.065 62.0943 115.108 57.8943 120.125 57.8943C125.141 57.8943 129.185 62.0943 129.185 67.3054C129.185 72.5166 125.141 76.7166 120.125 76.7166ZM112.188 68.9777C112.375 69.911 113.274 72.1666 114.809 71.6221C115.932 71.1943 116.007 70.1054 116.231 68.861C116.418 67.6943 116.718 65.4777 117.092 65.011C117.13 64.9721 117.092 64.9332 117.055 64.9332C116.156 64.9721 115.557 67.0721 115.22 68.0443C114.584 69.9499 112.637 70.1055 112.3 68.9388C112.3 68.9388 112.188 68.9388 112.188 68.9777ZM127.912 65.6721C127.687 65.1666 127.537 64.9721 127.313 64.5054C127.5 63.961 127.725 63.2221 127.687 62.911C127.537 61.5888 125.815 62.9888 126.19 64.6999C126.302 65.1666 126.414 65.5166 126.489 65.8277C125.965 66.9166 125.74 66.7221 125.778 66.3332C125.815 66.061 125.853 65.5166 125.853 65.5166C126.002 64.4666 125.478 64.3888 125.141 64.6221C124.954 64.7388 124.692 65.1277 124.58 65.361L124.692 64.8555L123.756 65.2443L123.457 66.8388C123.082 67.7332 122.671 67.8888 122.408 67.8499C122.334 67.811 122.259 67.7721 122.184 67.7332C123.045 66.9554 123.344 66.2943 123.27 65.8277C123.195 65.3221 122.82 65.3221 122.558 65.3999C121.884 65.6332 121.323 66.3332 121.173 67.3054C121.136 67.6166 121.136 67.9277 121.21 68.161C120.611 69.1332 120.574 68.5888 120.649 68.1999C120.836 67.3054 121.435 63.611 121.435 63.611L120.499 63.9999C120.499 63.9999 119.938 67.2277 119.713 68.4721C119.264 69.5999 119.151 69.1721 119.226 68.7832C119.376 67.8888 119.601 66.7221 119.601 66.7221L118.702 67.0721C118.702 67.0721 118.627 67.3443 118.552 67.811C118.44 67.461 118.215 67.2277 117.916 67.1888C117.354 67.111 116.755 67.8888 116.568 68.8221C116.381 69.7943 116.681 70.6499 117.242 70.6888C117.654 70.7277 118.066 70.3777 118.328 69.8332C118.478 70.1832 118.852 70.1443 119.077 69.9888C119.301 69.8332 119.526 69.4443 119.676 69.1332C119.75 69.5999 120.125 69.5999 120.387 69.4443C120.799 69.211 121.173 68.6666 121.36 68.4332C121.51 68.7054 121.772 68.861 122.072 68.8221C122.483 68.7832 122.97 68.2388 123.344 67.6166L123.195 68.3555L124.131 67.9666L124.468 66.1777C124.917 65.0499 125.067 65.4388 125.029 65.7888C125.029 65.7888 124.992 66.0999 124.917 66.6055C124.804 67.6555 125.254 67.6943 125.591 67.4999C126.077 67.1888 126.377 66.6054 126.639 66.061C126.826 66.5277 127.051 66.9166 127.238 67.4999C128.586 71.4277 123.494 71.0388 121.473 71.1166C119.601 71.1943 119.413 72.8666 119.226 74.1499C126.19 74.2277 129.334 68.8999 127.912 65.6721ZM118.403 68.6666C118.365 69.1332 118.066 69.6388 117.804 69.6388C117.542 69.6388 117.354 69.2499 117.429 68.7054C117.504 68.2388 117.729 67.811 117.991 67.811C118.253 67.811 118.44 68.1999 118.403 68.6666ZM122.072 67.4221C122.034 67.3054 122.034 67.1888 122.034 67.0332C122.072 66.5666 122.296 66.061 122.596 65.9832C122.708 65.9443 122.82 65.9832 122.82 66.1777C122.82 66.6054 122.408 67.111 122.072 67.4221ZM127.163 64.1554C127.126 64.1166 127.126 64.0777 127.126 64.0388C126.564 62.6388 127.313 62.4443 127.388 63.0277C127.388 63.3388 127.313 63.7666 127.163 64.1554ZM121.098 60.1499C120.986 61.0443 120.911 62.911 119.226 63.1832C116.456 63.6499 112.75 64.8943 112.151 67.6943C112.151 67.7332 112.038 67.7332 112.038 67.7332C111.963 63.3388 115.745 60.1499 121.098 60.1499Z" fill="#FF0000"/>
		</g>
		<defs>
		<clipPath id="clip0_1_587">
		<rect width="225" height="21" fill="white" transform="translate(15 57)"/>
		</clipPath>
		</defs>
	</symbol>

	<symbol id="firm4" viewBox="0 0 255 135" fill="none">
		<rect x="0.5" y="0.5" width="254" height="134" stroke="#C4C4C4"/>
		<g clip-path="url(#clip0_1_580)">
		<path fill-rule="evenodd" clip-rule="evenodd" d="M149.092 79.9242H146.835V54.0758H149.092V79.9242ZM202.734 54.0758V75.7426L182.571 54.0758V54H180.239V79.9242H182.571V58.0289L202.734 79.9242V79.8473V79.9242H205.066V54.0758H202.734ZM175.123 54.0758V54.1516L151.198 79.8473H154.658L175.123 57.2688V72.2442H165.042V74.6014H175.123V79.8473H177.378V54.0758H175.123Z" fill="black"/>
		<path fill-rule="evenodd" clip-rule="evenodd" d="M137.206 68.1384H137.356C141.118 68.1384 144.201 64.7181 144.201 60.9176C144.201 57.2688 141.342 54.2274 137.805 54.0758V54H137.43H118.924V79.9242H121.256V56.3572H137.656C138.763 56.5031 139.779 57.0469 140.513 57.8866C141.247 58.7264 141.649 59.8045 141.644 60.9188C141.644 63.3517 139.763 65.7077 137.28 65.8604H134.121V68.4449H134.195L140.891 79.8484H144.579L137.206 68.1384ZM104.027 54L91.464 54.0758V79.9231H110.347C113.957 79.6946 116.741 76.6531 116.741 73.0032C116.741 70.4956 115.462 68.3669 113.506 67.1499C115.461 65.9351 116.741 63.4264 116.741 60.9176C116.741 57.2688 113.957 54.3031 110.422 54.0758V54H104.027ZM104.027 77.5659H93.7954V56.3572H110.271C111.378 56.5031 112.394 57.0469 113.128 57.8867C113.862 58.7265 114.264 59.8046 114.258 60.9188C114.258 63.4275 112.227 65.7835 109.743 65.8604V68.4427C112.226 68.4427 114.258 70.4956 114.258 73.0032C114.258 75.3603 112.452 77.2605 110.196 77.5659H104.027Z" fill="black"/>
		<path fill-rule="evenodd" clip-rule="evenodd" d="M23 54V79.8472H25.3325L45.796 57.8773V72.2442H35.8648V74.6013H45.796V79.8472H48.0537V54H23ZM25.3325 76.3499V67.5321H33.6082L25.3325 76.3499ZM25.3325 65.175V56.356H44.1404L35.8648 65.175H25.3325Z" fill="#00ACEC"/>
		<path fill-rule="evenodd" clip-rule="evenodd" d="M219.21 54C212.139 54 206.345 59.7775 206.345 66.9247C206.345 74.0686 212.139 79.9242 219.21 79.9242C226.281 79.9242 232 74.0686 232 66.9247C232 59.7775 226.281 54 219.21 54ZM219.21 77.1859C213.642 77.1859 209.204 72.6254 209.204 67.0763C209.204 61.4504 213.642 56.9657 219.21 56.9657C224.702 56.9657 229.216 61.4504 229.216 67.0763C229.216 72.6254 224.702 77.1859 219.21 77.1859Z" fill="black"/>
		<path fill-rule="evenodd" clip-rule="evenodd" d="M81.758 56.5087V54.1515H56.5546V79.9241H58.8123V68.0626H73.66L62.7234 79.8472H66.1842L86.5728 57.2688V72.2442H76.5667V74.6013H86.5728L86.7225 79.9999H89.0551L88.9054 54.0757H86.5728V54.1515L75.8473 65.7066H58.8123V56.5087H81.758Z" fill="black"/>
		</g>
		<defs>
		<clipPath id="clip0_1_580">
		<rect width="209" height="26" fill="white" transform="translate(23 54)"/>
		</clipPath>
		</defs>
	</symbol>





	<symbol id="facebook" viewBox="0 0 24 24">
		<path d="M15.402 21V14.034H17.735L18.084 11.326H15.402V9.598C15.402 8.814 15.62 8.279 16.744 8.279H18.178V5.857C17.4838 5.78334 16.7861 5.74762 16.088 5.75C14.021 5.75 12.606 7.012 12.606 9.33V11.326H10.268V14.034H12.606V21H4C3.73478 21 3.48043 20.8946 3.29289 20.7071C3.10536 20.5196 3 20.2652 3 20V4C3 3.73478 3.10536 3.48043 3.29289 3.29289C3.48043 3.10536 3.73478 3 4 3H20C20.2652 3 20.5196 3.10536 20.7071 3.29289C20.8946 3.48043 21 3.73478 21 4V20C21 20.2652 20.8946 20.5196 20.7071 20.7071C20.5196 20.8946 20.2652 21 20 21H15.402V21Z"/>
	</symbol>

	<symbol id="twitter" viewBox="0 0 24 24">
		<path d="M22.383 5.96745C21.6196 6.30514 20.81 6.52692 19.981 6.62545C20.8548 6.10288 21.5087 5.28046 21.821 4.31145C21.001 4.79945 20.102 5.14145 19.165 5.32645C18.5356 4.65303 17.7014 4.20641 16.792 4.05603C15.8825 3.90566 14.9489 4.05994 14.1363 4.4949C13.3236 4.92987 12.6774 5.62113 12.2981 6.46124C11.9188 7.30135 11.8277 8.24323 12.039 9.14045C10.3761 9.0571 8.74933 8.62497 7.26429 7.87211C5.77924 7.11925 4.46913 6.0625 3.419 4.77045C3.04729 5.4089 2.85196 6.13468 2.853 6.87345C2.853 8.32345 3.591 9.60445 4.713 10.3545C4.04901 10.3335 3.39963 10.1542 2.819 9.83145V9.88345C2.8192 10.8492 3.15337 11.7851 3.76485 12.5325C4.37633 13.28 5.22748 13.7929 6.174 13.9845C5.55761 14.1515 4.91131 14.1761 4.284 14.0564C4.55087 14.8877 5.07101 15.6146 5.77159 16.1356C6.47218 16.6565 7.31813 16.9452 8.191 16.9614C7.32348 17.6428 6.33018 18.1464 5.26788 18.4436C4.20558 18.7408 3.09513 18.8257 2 18.6934C3.9117 19.9229 6.1371 20.5756 8.41 20.5734C16.103 20.5734 20.31 14.2005 20.31 8.67345C20.31 8.49345 20.305 8.31145 20.297 8.13345C21.1159 7.54162 21.8226 6.80847 22.384 5.96845L22.383 5.96745Z"/>
	</symbol>

	<symbol id="instagram" viewBox="0 0 24 24">
		<path d="M12 3C14.4453 3 14.7504 3.009 15.7098 3.054C16.6683 3.099 17.3208 3.2493 17.895 3.4725C18.489 3.7011 18.9894 4.0107 19.4898 4.5102C19.9474 4.96011 20.3016 5.50433 20.5275 6.105C20.7498 6.6783 20.901 7.3317 20.946 8.2902C20.9883 9.2496 21 9.5547 21 12C21 14.4453 20.991 14.7504 20.946 15.7098C20.901 16.6683 20.7498 17.3208 20.5275 17.895C20.3022 18.496 19.948 19.0404 19.4898 19.4898C19.0398 19.9473 18.4956 20.3014 17.895 20.5275C17.3217 20.7498 16.6683 20.901 15.7098 20.946C14.7504 20.9883 14.4453 21 12 21C9.5547 21 9.2496 20.991 8.2902 20.946C7.3317 20.901 6.6792 20.7498 6.105 20.5275C5.50409 20.302 4.95977 19.9479 4.5102 19.4898C4.05247 19.04 3.69834 18.4957 3.4725 17.895C3.2493 17.3217 3.099 16.6683 3.054 15.7098C3.0117 14.7504 3 14.4453 3 12C3 9.5547 3.009 9.2496 3.054 8.2902C3.099 7.3308 3.2493 6.6792 3.4725 6.105C3.69771 5.50396 4.05192 4.95959 4.5102 4.5102C4.9599 4.05231 5.50419 3.69816 6.105 3.4725C6.6792 3.2493 7.3308 3.099 8.2902 3.054C9.2496 3.0117 9.5547 3 12 3ZM12 7.5C10.8065 7.5 9.66193 7.97411 8.81802 8.81802C7.97411 9.66193 7.5 10.8065 7.5 12C7.5 13.1935 7.97411 14.3381 8.81802 15.182C9.66193 16.0259 10.8065 16.5 12 16.5C13.1935 16.5 14.3381 16.0259 15.182 15.182C16.0259 14.3381 16.5 13.1935 16.5 12C16.5 10.8065 16.0259 9.66193 15.182 8.81802C14.3381 7.97411 13.1935 7.5 12 7.5V7.5ZM17.85 7.275C17.85 6.97663 17.7315 6.69048 17.5205 6.4795C17.3095 6.26853 17.0234 6.15 16.725 6.15C16.4266 6.15 16.1405 6.26853 15.9295 6.4795C15.7185 6.69048 15.6 6.97663 15.6 7.275C15.6 7.57337 15.7185 7.85952 15.9295 8.07049C16.1405 8.28147 16.4266 8.4 16.725 8.4C17.0234 8.4 17.3095 8.28147 17.5205 8.07049C17.7315 7.85952 17.85 7.57337 17.85 7.275ZM12 9.3C12.7161 9.3 13.4028 9.58446 13.9092 10.0908C14.4155 10.5972 14.7 11.2839 14.7 12C14.7 12.7161 14.4155 13.4028 13.9092 13.9092C13.4028 14.4155 12.7161 14.7 12 14.7C11.2839 14.7 10.5972 14.4155 10.0908 13.9092C9.58446 13.4028 9.3 12.7161 9.3 12C9.3 11.2839 9.58446 10.5972 10.0908 10.0908C10.5972 9.58446 11.2839 9.3 12 9.3V9.3Z"/>
	</symbol>

	<symbol id="youtube" viewBox="0 0 24 24">
		<path d="M21.543 6.498C22 8.28 22 12 22 12C22 12 22 15.72 21.543 17.502C21.289 18.487 20.546 19.262 19.605 19.524C17.896 20 12 20 12 20C12 20 6.107 20 4.395 19.524C3.45 19.258 2.708 18.484 2.457 17.502C2 15.72 2 12 2 12C2 12 2 8.28 2.457 6.498C2.711 5.513 3.454 4.738 4.395 4.476C6.107 4 12 4 12 4C12 4 17.896 4 19.605 4.476C20.55 4.742 21.292 5.516 21.543 6.498V6.498ZM10 15.5L16 12L10 8.5V15.5Z"/>
	</symbol>

	<symbol id="logo-footer" viewbox="0 0 140 24">
		<circle cx="8.5" cy="11.5" r="8" stroke="#ffffff" fill="none"/>
		<path d="M25.84 17.58C26.5867 17.58 27.2 17.46 27.68 17.22C28.1733 16.9667 28.42 16.5467 28.42 15.96C28.42 15.68 28.3733 15.44 28.28 15.24C28.2 15.04 28.06 14.86 27.86 14.7C27.66 14.54 27.3933 14.3867 27.06 14.24C26.74 14.0933 26.34 13.92 25.86 13.72C25.4733 13.56 25.1067 13.4 24.76 13.24C24.4133 13.0667 24.1067 12.8733 23.84 12.66C23.5733 12.4333 23.36 12.1667 23.2 11.86C23.04 11.5533 22.96 11.18 22.96 10.74C22.96 9.9 23.2733 9.22 23.9 8.7C24.54 8.18 25.4133 7.92 26.52 7.92C27.2267 7.92 27.8067 7.98 28.26 8.1C28.7267 8.22 29.0533 8.32667 29.24 8.42L28.94 9.58C28.78 9.5 28.5067 9.39333 28.12 9.26C27.7467 9.12667 27.1933 9.06 26.46 9.06C26.1667 9.06 25.8867 9.09333 25.62 9.16C25.3667 9.21333 25.14 9.30667 24.94 9.44C24.74 9.56 24.58 9.72 24.46 9.92C24.34 10.1067 24.28 10.34 24.28 10.62C24.28 10.9 24.3333 11.14 24.44 11.34C24.5467 11.54 24.7 11.72 24.9 11.88C25.1133 12.0267 25.3667 12.1667 25.66 12.3C25.9667 12.4333 26.3133 12.58 26.7 12.74C27.1 12.9 27.48 13.0667 27.84 13.24C28.2133 13.4 28.54 13.6 28.82 13.84C29.1 14.0667 29.3267 14.3467 29.5 14.68C29.6733 15 29.76 15.4067 29.76 15.9C29.76 16.8333 29.4067 17.54 28.7 18.02C28.0067 18.5 27.0533 18.74 25.84 18.74C24.9333 18.74 24.24 18.66 23.76 18.5C23.28 18.3533 22.96 18.24 22.8 18.16L23.14 16.98C23.18 17.0067 23.2667 17.0533 23.4 17.12C23.5333 17.1733 23.7133 17.24 23.94 17.32C24.1667 17.3867 24.4333 17.4467 24.74 17.5C25.06 17.5533 25.4267 17.58 25.84 17.58ZM33.5747 18.5H32.2747V8.16H33.5747V18.5ZM33.8747 5.04C33.8747 5.34667 33.7814 5.59333 33.5947 5.78C33.408 5.95333 33.1814 6.04 32.9147 6.04C32.648 6.04 32.4214 5.95333 32.2347 5.78C32.048 5.59333 31.9547 5.34667 31.9547 5.04C31.9547 4.73333 32.048 4.49333 32.2347 4.32C32.4214 4.13333 32.648 4.04 32.9147 4.04C33.1814 4.04 33.408 4.13333 33.5947 4.32C33.7814 4.49333 33.8747 4.73333 33.8747 5.04ZM37.0208 8.52C37.4074 8.41333 37.9074 8.29333 38.5208 8.16C39.1474 8.02667 39.9541 7.96 40.9408 7.96C42.2474 7.96 43.1941 8.34 43.7808 9.1C43.8474 9.04667 43.9741 8.96 44.1608 8.84C44.3608 8.70667 44.6074 8.57333 44.9008 8.44C45.1941 8.30667 45.5341 8.19333 45.9208 8.1C46.3208 8.00667 46.7608 7.96 47.2408 7.96C48.0274 7.96 48.6608 8.08 49.1408 8.32C49.6341 8.54667 50.0141 8.87333 50.2808 9.3C50.5474 9.71333 50.7274 10.2133 50.8208 10.8C50.9141 11.3867 50.9608 12.0267 50.9608 12.72V18.5H49.6608V13.14C49.6608 12.46 49.6274 11.8733 49.5608 11.38C49.5074 10.8733 49.3874 10.46 49.2008 10.14C49.0274 9.80667 48.7741 9.56 48.4408 9.4C48.1074 9.22667 47.6741 9.14 47.1408 9.14C46.7408 9.14 46.3741 9.18 46.0408 9.26C45.7208 9.32667 45.4408 9.41333 45.2008 9.52C44.9608 9.62667 44.7608 9.73333 44.6008 9.84C44.4541 9.94667 44.3474 10.0267 44.2808 10.08C44.4008 10.4267 44.4874 10.82 44.5408 11.26C44.6074 11.6867 44.6408 12.14 44.6408 12.62V18.5H43.3408V13.14C43.3408 12.46 43.3074 11.8733 43.2408 11.38C43.1874 10.8733 43.0674 10.46 42.8808 10.14C42.6941 9.80667 42.4274 9.56 42.0808 9.4C41.7474 9.22667 41.3008 9.14 40.7408 9.14C40.1141 9.14 39.5808 9.17333 39.1408 9.24C38.7141 9.30667 38.4408 9.36667 38.3208 9.42V18.5H37.0208V8.52ZM55.5864 16.64C55.7064 16.7333 55.8531 16.8333 56.0264 16.94C56.2131 17.0467 56.4264 17.1467 56.6664 17.24C56.9064 17.3333 57.1664 17.4133 57.4464 17.48C57.7264 17.5333 58.0197 17.56 58.3264 17.56C58.9664 17.56 59.4997 17.4533 59.9264 17.24C60.3664 17.0133 60.7197 16.7133 60.9864 16.34C61.2531 15.9533 61.4464 15.5067 61.5664 15C61.6864 14.48 61.7464 13.9333 61.7464 13.36C61.7464 12 61.4064 10.96 60.7264 10.24C60.0464 9.50667 59.1464 9.14 58.0264 9.14C57.3864 9.14 56.8664 9.17333 56.4664 9.24C56.0797 9.29333 55.7864 9.35333 55.5864 9.42V16.64ZM55.5864 22.2H54.2864V8.52C54.6731 8.38667 55.1664 8.26 55.7664 8.14C56.3664 8.02 57.1264 7.96 58.0464 7.96C58.8064 7.96 59.4931 8.08667 60.1064 8.34C60.7331 8.58 61.2664 8.93333 61.7064 9.4C62.1597 9.86667 62.5064 10.4333 62.7464 11.1C62.9997 11.7667 63.1264 12.52 63.1264 13.36C63.1264 14.1467 63.0197 14.8733 62.8064 15.54C62.6064 16.1933 62.3064 16.76 61.9064 17.24C61.5064 17.7067 61.0131 18.0733 60.4264 18.34C59.8531 18.6067 59.1931 18.74 58.4464 18.74C57.7664 18.74 57.1731 18.6467 56.6664 18.46C56.1731 18.26 55.8131 18.0733 55.5864 17.9V22.2ZM68.5666 18.68C68.1266 18.6667 67.7399 18.6067 67.4066 18.5C67.0866 18.4067 66.8132 18.26 66.5866 18.06C66.3732 17.8467 66.2066 17.58 66.0866 17.26C65.9799 16.9267 65.9266 16.5133 65.9266 16.02V3.22L67.2266 2.98V15.98C67.2266 16.3 67.2532 16.56 67.3066 16.76C67.3732 16.9467 67.4666 17.1 67.5866 17.22C67.7066 17.3267 67.8599 17.4067 68.0466 17.46C68.2466 17.5133 68.4799 17.56 68.7466 17.6L68.5666 18.68ZM70.4242 13.32C70.4242 12.4133 70.5509 11.6267 70.8042 10.96C71.0709 10.28 71.4109 9.71333 71.8242 9.26C72.2509 8.80667 72.7309 8.47333 73.2642 8.26C73.8109 8.03333 74.3709 7.92 74.9442 7.92C76.2109 7.92 77.2176 8.33333 77.9642 9.16C78.7242 9.98667 79.1042 11.26 79.1042 12.98C79.1042 13.0867 79.0976 13.1933 79.0842 13.3C79.0842 13.4067 79.0776 13.5067 79.0642 13.6H71.8042C71.8442 14.8667 72.1576 15.84 72.7442 16.52C73.3309 17.2 74.2642 17.54 75.5442 17.54C76.2509 17.54 76.8109 17.4733 77.2242 17.34C77.6376 17.2067 77.9376 17.0933 78.1242 17L78.3642 18.12C78.1776 18.2267 77.8242 18.3533 77.3042 18.5C76.7976 18.6467 76.1976 18.72 75.5042 18.72C74.5976 18.72 73.8242 18.5867 73.1842 18.32C72.5442 18.0533 72.0176 17.68 71.6042 17.2C71.1909 16.72 70.8909 16.1533 70.7042 15.5C70.5176 14.8333 70.4242 14.1067 70.4242 13.32ZM77.7642 12.5C77.7376 11.42 77.4842 10.58 77.0042 9.98C76.5242 9.38 75.8442 9.08 74.9642 9.08C74.4976 9.08 74.0776 9.17333 73.7042 9.36C73.3442 9.54667 73.0242 9.8 72.7442 10.12C72.4776 10.4267 72.2642 10.7867 72.1042 11.2C71.9576 11.6133 71.8709 12.0467 71.8442 12.5H77.7642Z" fill="#ffffff" />
		<rect x="86.5" y="3.5" width="31" height="16" rx="8" stroke="#ffffff" fill="none" />
		<circle cx="131.5" cy="11.5" r="8" stroke="#ffffff" fill="none" />
	</symbol>

</svg>